<svg xmlns="http://www.w3.org/2000/svg" viewBox="0 0 128 128" width="128" height="128" role="img" aria-label="ann demo avatar">
  <rect width="128" height="128" rx="24" fill="#5B21B6"/>
  <ellipse cx="64" cy="64" rx="52" ry="48" fill="#F8FAFC"/>
  <ellipse cx="64" cy="68" rx="36" ry="32" fill="#E8EAED"/>
  <circle cx="46" cy="62" r="13" fill="#FFFFFF" stroke="#CBD5E1" stroke-width="1.5"/>
  <circle cx="82" cy="62" r="13" fill="#FFFFFF" stroke="#CBD5E1" stroke-width="1.5"/>
  <circle cx="46" cy="62" r="7" fill="#F4A23B"/>
  <circle cx="82" cy="62" r="7" fill="#F4A23B"/>
  <circle cx="48" cy="60" r="2.2" fill="#2F2419"/>
  <circle cx="84" cy="60" r="2.2" fill="#2F2419"/>
  <path d="M64 74 L56 86 L72 86 Z" fill="#F4A23B"/>
  <path d="M56 86 Q64 92 72 86" fill="none" stroke="#3C3C38" stroke-width="2" stroke-linecap="round"/>
  <path d="M38 36 L40 24 L42 36 Z" fill="#F8FAFC"/>
  <path d="M86 36 L88 24 L90 36 Z" fill="#F8FAFC"/>
  <circle cx="40" cy="42" r="4" fill="#F8FAFC"/>
  <circle cx="88" cy="42" r="4" fill="#F8FAFC"/>
  <path d="M98 28 L100 20 L102 28 L100 30 Z" fill="#F4A23B"/>
</svg>
