<svg xmlns="http://www.w3.org/2000/svg" viewBox="0 0 128 128" width="128" height="128" role="img" aria-label="bob demo avatar">
  <rect width="128" height="128" rx="24" fill="#0D9488"/>
  <ellipse cx="64" cy="66" rx="50" ry="46" fill="#8B5E3C"/>
  <ellipse cx="64" cy="72" rx="34" ry="28" fill="#F5E6D3"/>
  <ellipse cx="36" cy="44" rx="14" ry="16" fill="#8B5E3C"/>
  <ellipse cx="92" cy="44" rx="14" ry="16" fill="#8B5E3C"/>
  <path d="M52 28 Q64 18 76 28 L72 36 Q64 30 56 36 Z" fill="#8B5E3C"/>
  <circle cx="48" cy="62" r="6" fill="#2F2419"/>
  <circle cx="80" cy="62" r="6" fill="#2F2419"/>
  <circle cx="49.5" cy="61" r="2" fill="#FFFFFF"/>
  <circle cx="81.5" cy="61" r="2" fill="#FFFFFF"/>
  <ellipse cx="64" cy="74" rx="5" ry="3.5" fill="#3C3C38"/>
  <path d="M56 80 Q64 86 72 80" fill="none" stroke="#3C3C38" stroke-width="2.5" stroke-linecap="round"/>
  <circle cx="48" cy="62" r="14" fill="none" stroke="#2F2419" stroke-width="2.5"/>
  <circle cx="80" cy="62" r="14" fill="none" stroke="#2F2419" stroke-width="2.5"/>
  <line x1="58" y1="62" x2="70" y2="62" stroke="#2F2419" stroke-width="2.2"/>
</svg>
