<svg xmlns="http://www.w3.org/2000/svg" width="497.9" height="95.7" viewBox="0 0 497.91 95.75" role="img" aria-label="theirtime"><title>theirtime</title><g transform="translate(-1.85,88.01) scale(0.12000,-0.12000)"><path d="M65.4404296875 264.0H187.6787109375V145.67919921875Q187.6787109375 112.87890625 207.558837890625 98.77880859375Q227.43896484375 84.6787109375 262.63916015625 84.6787109375Q278.67919921875 84.6787109375 297.279296875 88.998779296875Q315.87939453125 93.31884765625 328.91943359375 99.39892578125Q336.359375 91.47900390625 342.079345703125 80.0791015625Q347.79931640625 68.67919921875 347.79931640625 53.3193359375Q347.79931640625 24.11962890625 320.599365234375 5.079833984375Q293.3994140625 -13.9599609375 234.919921875 -13.9599609375Q156.2802734375 -13.9599609375 110.8603515625 21.35986328125Q65.4404296875 56.6796875 65.4404296875 137.3193359375ZM139.55908203125 366.32080078125V463.03955078125H335.83935546875Q340.279296875 456.15966796875 344.479248046875 443.31982421875Q348.67919921875 430.47998046875 348.67919921875 415.68017578125Q348.67919921875 390.560546875 337.079345703125 378.440673828125Q325.4794921875 366.32080078125 305.7197265625 366.32080078125ZM187.6787109375 236.8798828125H65.4404296875V597.43994140625Q73.3203125 599.919921875 88.6201171875 602.89990234375Q103.919921875 605.8798828125 121.19970703125 605.8798828125Q155.63916015625 605.8798828125 171.658935546875 593.300048828125Q187.6787109375 580.72021484375 187.6787109375 548.7607421875ZM886.87890625 201.8798828125H763.6806640625V292.43994140625Q763.6806640625 343.3203125 736.42041015625 366.320556640625Q709.16015625 389.32080078125 667.19970703125 389.32080078125Q632.51953125 389.32080078125 604.059326171875 376.24072265625Q575.59912109375 363.16064453125 555.47900390625 346.00048828125L547.6787109375 445.55908203125Q571.19873046875 460.1591796875 607.098876953125 473.8193359375Q642.9990234375 487.4794921875 688.279296875 487.4794921875Q778.47900390625 487.4794921875 832.678955078125 440.319580078125Q886.87890625 393.15966796875 886.87890625 298.27978515625ZM449.96044921875 264.0H573.15869140625V1.52001953125Q565.27880859375 -0.9599609375 550.239013671875 -3.699951171875Q535.19921875 -6.43994140625 517.439453125 -6.43994140625Q483.0 -6.43994140625 466.480224609375 6.139892578125Q449.96044921875 18.7197265625 449.96044921875 50.67919921875ZM763.6806640625 263.47998046875 886.87890625 262.9599609375V1.52001953125Q878.9990234375 -0.9599609375 863.69921875 -3.699951171875Q848.3994140625 -6.43994140625 831.15966796875 -6.43994140625Q796.2001953125 -6.43994140625 779.9404296875 6.139892578125Q763.6806640625 18.7197265625 763.6806640625 50.67919921875ZM573.15869140625 201.0009765625H449.96044921875V649.919921875Q457.84033203125 652.39990234375 473.14013671875 655.139892578125Q488.43994140625 657.8798828125 506.19970703125 657.8798828125Q541.119140625 657.8798828125 557.138916015625 645.5400390625Q573.15869140625 633.2001953125 573.15869140625 600.7607421875ZM1069.3994140625 173.76025390625 1064.439453125 260.279296875 1332.36083984375 299.83935546875Q1329.32080078125 338.0400390625 1303.00048828125 366.100341796875Q1276.68017578125 394.16064453125 1227.23974609375 394.16064453125Q1175.79931640625 394.16064453125 1142.01904296875 358.540283203125Q1108.23876953125 322.919921875 1107.27880859375 256.71923828125L1110.15869140625 204.96044921875Q1118.5986328125 141.27978515625 1159.298828125 111.059326171875Q1199.9990234375 80.8388671875 1262.19970703125 80.8388671875Q1304.19970703125 80.8388671875 1340.11962890625 93.39892578125Q1376.03955078125 105.958984375 1397.4794921875 120.51904296875Q1410.87939453125 112.0791015625 1419.539306640625 98.499267578125Q1428.19921875 84.91943359375 1428.19921875 69.07958984375Q1428.19921875 43.35986328125 1405.25927734375 24.4599609375Q1382.3193359375 5.56005859375 1343.219482421875 -4.43994140625Q1304.11962890625 -14.43994140625 1254.35986328125 -14.43994140625Q1176.8798828125 -14.43994140625 1117.5 14.280029296875Q1058.1201171875 43.0 1024.740234375 100.179931640625Q991.3603515625 157.35986328125 991.3603515625 241.6796875Q991.3603515625 302.99951171875 1010.26025390625 349.179443359375Q1029.16015625 395.359375 1061.780029296875 425.87939453125Q1094.39990234375 456.3994140625 1137.079833984375 471.939453125Q1179.759765625 487.4794921875 1227.27978515625 487.4794921875Q1293.07958984375 487.4794921875 1342.699462890625 460.759521484375Q1392.3193359375 434.03955078125 1420.499267578125 387.0595703125Q1448.67919921875 340.07958984375 1448.67919921875 279.11962890625Q1448.67919921875 251.35986328125 1434.359375 237.780029296875Q1420.03955078125 224.2001953125 1394.35986328125 220.76025390625ZM1542.400390625 614.23974609375Q1542.400390625 643.3994140625 1562.68017578125 663.419189453125Q1582.9599609375 683.43896484375 1614.07958984375 683.43896484375Q1645.71923828125 683.43896484375 1665.47900390625 663.419189453125Q1685.23876953125 643.3994140625 1685.23876953125 614.23974609375Q1685.23876953125 585.56005859375 1665.47900390625 565.30029296875Q1645.71923828125 545.04052734375 1614.07958984375 545.04052734375Q1582.9599609375 545.04052734375 1562.68017578125 565.30029296875Q1542.400390625 585.56005859375 1542.400390625 614.23974609375ZM1552.48046875 264.0H1675.6787109375V1.52001953125Q1667.798828125 -0.9599609375 1652.759033203125 -3.699951171875Q1637.71923828125 -6.43994140625 1619.95947265625 -6.43994140625Q1585.52001953125 -6.43994140625 1569.000244140625 6.139892578125Q1552.48046875 18.7197265625 1552.48046875 50.67919921875ZM1675.6787109375 201.0009765625H1552.48046875V469.11962890625Q1560.3603515625 471.599609375 1575.66015625 474.339599609375Q1590.9599609375 477.07958984375 1608.7197265625 477.07958984375Q1643.63916015625 477.07958984375 1659.658935546875 464.73974609375Q1675.6787109375 452.39990234375 1675.6787109375 419.4404296875ZM1932.15869140625 360.16064453125V223.27978515625H1808.96044921875V369.52001953125Q1808.96044921875 395.39990234375 1820.8203125 412.73974609375Q1832.68017578125 430.07958984375 1855.080078125 444.51953125Q1885.39990234375 463.439453125 1931.35986328125 475.219482421875Q1977.31982421875 486.99951171875 2029.919921875 486.99951171875Q2123.83935546875 486.99951171875 2123.83935546875 429.240234375Q2123.83935546875 415.400390625 2119.87939453125 403.54052734375Q2115.91943359375 391.6806640625 2109.95947265625 383.28076171875Q2099.95947265625 385.28076171875 2084.91943359375 386.80078125Q2069.87939453125 388.32080078125 2053.3994140625 388.32080078125Q2017.47900390625 388.32080078125 1985.8388671875 380.500732421875Q1954.19873046875 372.6806640625 1932.15869140625 360.16064453125ZM1808.96044921875 264.0 1932.15869140625 257.759765625V1.52001953125Q1924.27880859375 -0.9599609375 1909.239013671875 -3.699951171875Q1894.19921875 -6.43994140625 1876.439453125 -6.43994140625Q1842.0 -6.43994140625 1825.480224609375 6.139892578125Q1808.96044921875 18.7197265625 1808.96044921875 50.67919921875Z" fill="#E8EAED"/><path d="M2206.4404296875 264.0H2328.6787109375V145.67919921875Q2328.6787109375 112.87890625 2348.558837890625 98.77880859375Q2368.43896484375 84.6787109375 2403.63916015625 84.6787109375Q2419.67919921875 84.6787109375 2438.279296875 88.998779296875Q2456.87939453125 93.31884765625 2469.91943359375 99.39892578125Q2477.359375 91.47900390625 2483.079345703125 80.0791015625Q2488.79931640625 68.67919921875 2488.79931640625 53.3193359375Q2488.79931640625 24.11962890625 2461.599365234375 5.079833984375Q2434.3994140625 -13.9599609375 2375.919921875 -13.9599609375Q2297.2802734375 -13.9599609375 2251.8603515625 21.35986328125Q2206.4404296875 56.6796875 2206.4404296875 137.3193359375ZM2280.55908203125 366.32080078125V463.03955078125H2476.83935546875Q2481.279296875 456.15966796875 2485.479248046875 443.31982421875Q2489.67919921875 430.47998046875 2489.67919921875 415.68017578125Q2489.67919921875 390.560546875 2478.079345703125 378.440673828125Q2466.4794921875 366.32080078125 2446.7197265625 366.32080078125ZM2328.6787109375 236.8798828125H2206.4404296875V597.43994140625Q2214.3203125 599.919921875 2229.6201171875 602.89990234375Q2244.919921875 605.8798828125 2262.19970703125 605.8798828125Q2296.63916015625 605.8798828125 2312.658935546875 593.300048828125Q2328.6787109375 580.72021484375 2328.6787109375 548.7607421875ZM2583.400390625 614.23974609375Q2583.400390625 643.3994140625 2603.68017578125 663.419189453125Q2623.9599609375 683.43896484375 2655.07958984375 683.43896484375Q2686.71923828125 683.43896484375 2706.47900390625 663.419189453125Q2726.23876953125 643.3994140625 2726.23876953125 614.23974609375Q2726.23876953125 585.56005859375 2706.47900390625 565.30029296875Q2686.71923828125 545.04052734375 2655.07958984375 545.04052734375Q2623.9599609375 545.04052734375 2603.68017578125 565.30029296875Q2583.400390625 585.56005859375 2583.400390625 614.23974609375ZM2593.48046875 264.0H2716.6787109375V1.52001953125Q2708.798828125 -0.9599609375 2693.759033203125 -3.699951171875Q2678.71923828125 -6.43994140625 2660.95947265625 -6.43994140625Q2626.52001953125 -6.43994140625 2610.000244140625 6.139892578125Q2593.48046875 18.7197265625 2593.48046875 50.67919921875ZM2716.6787109375 201.0009765625H2593.48046875V469.11962890625Q2601.3603515625 471.599609375 2616.66015625 474.339599609375Q2631.9599609375 477.07958984375 2649.7197265625 477.07958984375Q2684.63916015625 477.07958984375 2700.658935546875 464.73974609375Q2716.6787109375 452.39990234375 2716.6787109375 419.4404296875ZM3262.798828125 326.7197265625V212.6796875H3139.6005859375V312.56005859375Q3139.6005859375 352.4404296875 3116.38037109375 370.880615234375Q3093.16015625 389.32080078125 3056.7197265625 389.32080078125Q3031.4794921875 389.32080078125 3009.67919921875 381.480712890625Q2987.87890625 373.640625 2973.15869140625 364.48046875V212.6796875H2849.96044921875V372.47998046875Q2849.96044921875 395.83984375 2859.900390625 411.27978515625Q2869.84033203125 426.7197265625 2890.3603515625 440.19970703125Q2920.72021484375 460.5595703125 2966.5400390625 474.01953125Q3012.35986328125 487.4794921875 3060.599609375 487.4794921875Q3109.6796875 487.4794921875 3150.599609375 472.45947265625Q3191.51953125 457.439453125 3218.19921875 428.03955078125Q3225.1591796875 421.5595703125 3231.319091796875 415.599609375Q3237.47900390625 409.6396484375 3241.47900390625 401.6396484375Q3250.39892578125 387.23974609375 3256.598876953125 367.759765625Q3262.798828125 348.27978515625 3262.798828125 326.7197265625ZM3552.43896484375 317.0400390625V212.6796875H3429.24072265625V312.56005859375Q3429.24072265625 352.4404296875 3407.00048828125 370.880615234375Q3384.76025390625 389.32080078125 3347.83984375 389.32080078125Q3320.51953125 389.32080078125 3295.459228515625 378.1806640625Q3270.39892578125 367.04052734375 3251.5986328125 348.68017578125L3190.31982421875 424.439453125Q3220.6396484375 449.95947265625 3262.879638671875 468.719482421875Q3305.11962890625 487.4794921875 3363.439453125 487.4794921875Q3415.99951171875 487.4794921875 3458.859375 469.99951171875Q3501.71923828125 452.51953125 3527.0791015625 414.879638671875Q3552.43896484375 377.23974609375 3552.43896484375 317.0400390625ZM2849.96044921875 260.8798828125H2973.15869140625V1.52001953125Q2965.27880859375 -0.9599609375 2950.239013671875 -3.699951171875Q2935.19921875 -6.43994140625 2917.439453125 -6.43994140625Q2883.0 -6.43994140625 2866.480224609375 6.139892578125Q2849.96044921875 18.7197265625 2849.96044921875 50.67919921875ZM3139.6005859375 260.8798828125H3262.798828125V1.52001953125Q3254.9189453125 -0.9599609375 3239.619140625 -3.699951171875Q3224.3193359375 -6.43994140625 3207.07958984375 -6.43994140625Q3172.1201171875 -6.43994140625 3155.8603515625 6.139892578125Q3139.6005859375 18.7197265625 3139.6005859375 50.67919921875ZM3429.24072265625 260.8798828125H3552.43896484375V1.52001953125Q3544.55908203125 -0.9599609375 3529.25927734375 -3.699951171875Q3513.95947265625 -6.43994140625 3496.7197265625 -6.43994140625Q3461.76025390625 -6.43994140625 3445.50048828125 6.139892578125Q3429.24072265625 18.7197265625 3429.24072265625 50.67919921875ZM3735.3994140625 173.76025390625 3730.439453125 260.279296875 3998.36083984375 299.83935546875Q3995.32080078125 338.0400390625 3969.00048828125 366.100341796875Q3942.68017578125 394.16064453125 3893.23974609375 394.16064453125Q3841.79931640625 394.16064453125 3808.01904296875 358.540283203125Q3774.23876953125 322.919921875 3773.27880859375 256.71923828125L3776.15869140625 204.96044921875Q3784.5986328125 141.27978515625 3825.298828125 111.059326171875Q3865.9990234375 80.8388671875 3928.19970703125 80.8388671875Q3970.19970703125 80.8388671875 4006.11962890625 93.39892578125Q4042.03955078125 105.958984375 4063.4794921875 120.51904296875Q4076.87939453125 112.0791015625 4085.539306640625 98.499267578125Q4094.19921875 84.91943359375 4094.19921875 69.07958984375Q4094.19921875 43.35986328125 4071.25927734375 24.4599609375Q4048.3193359375 5.56005859375 4009.219482421875 -4.43994140625Q3970.11962890625 -14.43994140625 3920.35986328125 -14.43994140625Q3842.8798828125 -14.43994140625 3783.5 14.280029296875Q3724.1201171875 43.0 3690.740234375 100.179931640625Q3657.3603515625 157.35986328125 3657.3603515625 241.6796875Q3657.3603515625 302.99951171875 3676.26025390625 349.179443359375Q3695.16015625 395.359375 3727.780029296875 425.87939453125Q3760.39990234375 456.3994140625 3803.079833984375 471.939453125Q3845.759765625 487.4794921875 3893.27978515625 487.4794921875Q3959.07958984375 487.4794921875 4008.699462890625 460.759521484375Q4058.3193359375 434.03955078125 4086.499267578125 387.0595703125Q4114.67919921875 340.07958984375 4114.67919921875 279.11962890625Q4114.67919921875 251.35986328125 4100.359375 237.780029296875Q4086.03955078125 224.2001953125 4060.35986328125 220.76025390625Z" fill="#2DD4BF"/></g></svg>
